Coordinates
version=1
nRows=5
nColumns=63
inDegrees=yes

Units are S.I. units (second, meters, Newtons, ...)
If the header above contains a line with 'inDegrees', this indicates whether rotational values are in degrees (yes) or radians (no).

endheader
time	pelvis_tilt	pelvis_list	pelvis_rotation	pelvis_tx	pelvis_ty	pelvis_tz	hip_flexion_r	hip_adduction_r	hip_rotation_r	knee_angle_r	knee_angle_r_beta	ankle_angle_r	subtalar_angle_r	mtp_angle_r	hip_flexion_l	hip_adduction_l	hip_rotation_l	knee_angle_l	knee_angle_l_beta	ankle_angle_l	subtalar_angle_l	mtp_angle_l	L5_S1_Flex_Ext	L5_S1_Lat_Bending	L5_S1_axial_rotation	L4_L5_Flex_Ext	L4_L5_Lat_Bending	L4_L5_axial_rotation	L3_L4_Flex_Ext	L3_L4_Lat_Bending	L3_L4_axial_rotation	L2_L3_Flex_Ext	L2_L3_Lat_Bending	L2_L3_axial_rotation	L1_L2_Flex_Ext	L1_L2_Lat_Bending	L1_L2_axial_rotation	L1_T12_Flex_Ext	L1_T12_Lat_Bending	L1_T12_axial_rotation	Abs_r3	Abs_r2	Abs_r1	Abs_t1	Abs_t2	neck_flexion	neck_bending	neck_rotation	arm_flex_r	arm_add_r	arm_rot_r	elbow_flex_r	pro_sup_r	wrist_flex_r	wrist_dev_r	arm_flex_l	arm_add_l	arm_rot_l	elbow_flex_l	pro_sup_l	wrist_flex_l	wrist_dev_l
      7.78300000	    -39.91658719	      4.88022609	     -0.38479239	     -0.16546600	      1.02852706	      0.04175604	     86.64088116	     -7.92433015	      3.13223293	     90.98075036	      1.58791365	      3.92159043	    -14.16694930	      0.00000000	    102.07144032	     -5.58652315	     -2.43890360	     77.44935974	      1.35174633	      8.24391088	     -9.92203966	      0.00000000	     -0.07175184	     -0.78563088	     -0.19846654	     -0.13325035	     -1.04488908	     -0.21087070	     -0.11788111	     -1.91018293	     -0.21087070	     -0.08200518	     -1.91018293	     -0.17365822	     -0.06662876	     -1.60205850	     -0.16125407	     -0.04099900	     -1.21694224	     -0.14884991	     -0.51251625	     -8.88721369	     -1.10381137	      0.00000000	      0.00000000	      0.00000000	      0.00000000	      0.00000000	     66.88094747	     -9.78439097	     20.17388270	     38.36079403	     62.61182604	      0.00000000	      5.00000013	     69.77824827	    -18.58289435	     21.84474404	     40.61302060	     64.10316950	      0.00000000	      5.00000013
      7.79200000	    -39.87750419	      4.63434840	     -0.67067864	     -0.16480551	      1.02877129	      0.04200331	     87.23493041	     -7.61453953	      3.26182750	     92.56573244	      1.61557681	      4.38055028	    -13.87296868	      0.00000000	    100.84870355	     -5.73277930	     -2.26969779	     75.47541948	      1.31729457	      8.06402703	     -9.94198046	      0.00000000	     -0.07039605	     -0.75317185	     -0.13767716	     -0.13073251	     -1.00171857	     -0.14628199	     -0.11565368	     -1.83126205	     -0.14628199	     -0.08045565	     -1.83126205	     -0.12046752	     -0.06536978	     -1.53586805	     -0.11186270	     -0.04022431	     -1.16666320	     -0.10325787	     -0.50283197	     -8.52003065	     -0.76571908	      0.00000000	      0.00000000	      0.00000000	      0.00000000	      0.00000000	     66.76106696	     -9.89560707	     20.07227615	     38.33951356	     62.63222831	      0.00000000	      5.00000013	     69.66736529	    -18.56228088	     21.97665363	     40.63158938	     64.16216005	      0.00000000	      5.00000013
      7.80000000	    -39.82961701	      4.28222437	     -0.97877984	     -0.16427878	      1.02878451	      0.04221568	     87.85294679	     -7.22482115	      3.30037191	     94.19229406	      1.64396566	      4.72455655	    -13.74824779	      0.00000000	     99.66842878	     -5.93804071	     -2.09665382	     73.62440026	      1.28498819	      7.83208498	     -9.92094710	      0.00000000	     -0.07274238	     -0.70494112	     -0.07162554	     -0.13508988	     -0.93757169	     -0.07610214	     -0.11950846	     -1.71399384	     -0.07610214	     -0.08313727	     -1.71399384	     -0.06267235	     -0.06754858	     -1.43751593	     -0.05819575	     -0.04156500	     -1.09195379	     -0.05371916	     -0.51959156	     -7.97443492	     -0.39835977	      0.00000000	      0.00000000	      0.00000000	      0.00000000	      0.00000000	     66.75008814	     -9.99429575	     19.99554422	     38.34544223	     62.63774005	      0.00000000	      5.00000013	     69.59788399	    -18.46967696	     22.05168687	     40.69330118	     64.18917375	      0.00000000	      5.00000013
      7.80800000	    -39.79606876	      3.98938194	     -1.15013625	     -0.16361628	      1.02893431	      0.04220855	     88.50583114	     -7.02430432	      3.37469819	     95.72852510	      1.67077795	      4.92962246	    -13.29802431	      0.00000000	     98.32646918	     -5.94710136	     -1.96305987	     71.55264831	      1.24882930	      7.84715872	    -10.08736132	      0.00000000	     -0.07143723	     -0.66404512	     -0.02535937	     -0.13266607	     -0.88318001	     -0.02694433	     -0.11736422	     -1.61455930	     -0.02694433	     -0.08164561	     -1.61455930	     -0.02218945	     -0.06633661	     -1.35412081	     -0.02060449	     -0.04081923	     -1.02860589	     -0.01901953	     -0.51026896	     -7.51181120	     -0.14104122	      0.00000000	      0.00000000	      0.00000000	      0.00000000	      0.00000000	     66.63887968	    -10.11077979	     19.90650975	     38.36810216	     62.64750768	      0.00000000	      5.00000013	     69.45115186	    -18.37119586	     22.11506852	     40.71279705	     64.22306088	      0.00000000	      5.00000013
      7.81700000	    -39.75041349	      3.67455015	     -1.31588161	     -0.16301076	      1.02889653	      0.04216542	     89.20422154	     -6.81225750	      3.42363811	     97.31196225	      1.69841414	      5.08520238	    -12.85442153	      0.00000000	     97.00334926	     -5.98756252	     -1.86596572	     69.58979027	      1.21457097	      7.76765108	    -10.21998137	      0.00000000	     -0.07201092	     -0.61903045	      0.01826228	     -0.13373149	     -0.82331050	      0.01940367	     -0.11830675	     -1.50511064	      0.01940367	     -0.08230128	     -1.50511064	      0.01597950	     -0.06686934	     -1.26232690	      0.01483810	     -0.04114704	     -0.95887817	      0.01369671	     -0.51436683	     -7.00259628	      0.10156933	      0.00000000	      0.00000000	      0.00000000	      0.00000000	      0.00000000	     66.59170934	    -10.21717818	     19.81870154	     38.40742475	     62.65528355	      0.00000000	      5.00000013	     69.30619979	    -18.27425933	     22.12452571	     40.74951108	     64.24674792	      0.00000000	      5.00000013
